<?xml version="1.0" encoding="utf-8" standalone="yes"?>
<!DOCTYPE svg PUBLIC "-//W3C//DTD SVG 1.1//EN" "http://www.w3.org/Graphics/SVG/1.1/DTD/svg11.dtd">
<svg width="868" height="523" viewBox="0 0 868 523" style="fill:none;stroke:none;fill-rule:evenodd;clip-rule:evenodd;stroke-linecap:round;stroke-linejoin:round;stroke-miterlimit:1.5;" version="1.1" xmlns="http://www.w3.org/2000/svg" xmlns:xlink="http://www.w3.org/1999/xlink"><style id="fontImports">@import url("https://fonts.googleapis.com/css2?family=Roboto:wght@400;700&amp;display=block");</style><rect id="" x="0" y="0" width="868" height="523" style="fill: #ffffff;"></rect><g id="items" style="isolation: isolate"><g id="blend" style="mix-blend-mode:multiply"><g id="g-root-ro_1d14ner1fxq3nl-fill" data-item-order="-29232" data-item-id="ro_1d14ner1fxq3nl" data-item-class="Shape Stroke Fill" data-item-index="none" data-renderer-id="0" transform="translate(330, 129)"><g id="ro_1d14ner1fxq3nl-fill" stroke="none" fill="#f0f0f0"><g><path d="M 34 10L 154 10C 154 10 178 10 178 34L 178 160C 178 160 178 184 154 184L 34 184C 34 184 10 184 10 160L 10 34C 10 34 10 10 34 10"></path></g></g></g><g id="g-root-ro_diksqr1fxao7e-fill" data-item-order="-12312" data-item-id="ro_diksqr1fxao7e" data-item-class="Shape Stroke Fill" data-item-index="none" data-renderer-id="0" transform="translate(134, 3)"><g id="ro_diksqr1fxao7e-fill" stroke="none" fill="#e9fbf3"><g><path d="M 22 10L 226 10C 226 10 238 10 238 22L 238 52C 238 52 238 64 226 64L 22 64C 22 64 10 64 10 52L 10 22C 10 22 10 10 22 10"></path></g></g></g><g id="g-root-ro_58v431fxevpi-fill" data-item-order="-11016" data-item-id="ro_58v431fxevpi" data-item-class="Shape Stroke Fill" data-item-index="none" data-renderer-id="0" transform="translate(158, 339)"><g id="ro_58v431fxevpi-fill" stroke="none" fill="#fef2e6"><g><path d="M 22 10L 202 10C 202 10 214 10 214 22L 214 52C 214 52 214 64 202 64L 22 64C 22 64 10 64 10 52L 10 22C 10 22 10 10 22 10"></path></g></g></g><g id="g-root-ro_8vvzib1fxopam-fill" data-item-order="-9720" data-item-id="ro_8vvzib1fxopam" data-item-class="Shape Stroke Fill" data-item-index="none" data-renderer-id="0" transform="translate(466, 3)"><g id="ro_8vvzib1fxopam-fill" stroke="none" fill="#e6f9ff"><g><path d="M 22 10L 178 10C 178 10 190 10 190 22L 190 52C 190 52 190 64 178 64L 22 64C 22 64 10 64 10 52L 10 22C 10 22 10 10 22 10"></path></g></g></g><g id="g-root-ro_18lxpj71fxanm1-fill" data-item-order="-9720" data-item-id="ro_18lxpj71fxanm1" data-item-class="Shape Stroke Fill" data-item-index="none" data-renderer-id="0" transform="translate(466, 339)"><g id="ro_18lxpj71fxanm1-fill" stroke="none" fill="#ffe7e6"><g><path d="M 22 10L 178 10C 178 10 190 10 190 22L 190 52C 190 52 190 64 178 64L 22 64C 22 64 10 64 10 52L 10 22C 10 22 10 10 22 10"></path></g></g></g><g id="g-root-ro_13zvgjn1fxkjcy-fill" data-item-order="-9720" data-item-id="ro_13zvgjn1fxkjcy" data-item-class="Shape Stroke Fill" data-item-index="none" data-renderer-id="0" transform="translate(546, 117)"><g id="ro_13zvgjn1fxkjcy-fill" stroke="none" fill="#f7e6fe"><g><path d="M 22 10L 178 10C 178 10 190 10 190 22L 190 52C 190 52 190 64 178 64L 22 64C 22 64 10 64 10 52L 10 22C 10 22 10 10 22 10"></path></g></g></g><g id="g-root-ro_1lw5cw31fx7v2e-fill" data-item-order="-8424" data-item-id="ro_1lw5cw31fx7v2e" data-item-class="Shape Stroke Fill" data-item-index="none" data-renderer-id="0" transform="translate(126, 117)"><g id="ro_1lw5cw31fx7v2e-fill" stroke="none" fill="#e6efff"><g><path d="M 22 10L 154 10C 154 10 166 10 166 22L 166 52C 166 52 166 64 154 64L 22 64C 22 64 10 64 10 52L 10 22C 10 22 10 10 22 10"></path></g></g></g><g id="g-root-tx_glaciers_mgpm6b1fxncb0-fill" data-item-order="0" data-item-id="tx_glaciers_mgpm6b1fxncb0" data-item-class="Label Stroke" data-item-index="none" data-renderer-id="0" transform="translate(514, 18)"><g id="tx_glaciers_mgpm6b1fxncb0-fill" stroke="none" fill="#17b0e3"><g><text style="font: 20px Roboto, sans-serif; white-space: pre;"><tspan x="15.77" y="34" dominant-baseline="ideographic">GlacierState</tspan></text></g></g></g><g id="g-root-tx_aggregat_m9uhdv1fx51qn-fill" data-item-order="0" data-item-id="tx_aggregat_m9uhdv1fx51qn" data-item-class="Label Stroke" data-item-index="none" data-renderer-id="0" transform="translate(146, 69)"><g id="tx_aggregat_m9uhdv1fx51qn-fill" stroke="none" fill="#484848"><g><text style="font: 20px Roboto, sans-serif; white-space: pre;"><tspan x="15.27" y="34" dominant-baseline="ideographic">AggregatedInflow</tspan></text></g></g></g><g id="g-root-cu_18k2dfn1fxewaz-fill" data-item-order="0" data-item-id="cu_18k2dfn1fxewaz" data-item-class="Curve Stroke ColorFillGray ColorStrokeGray" data-item-index="none" data-renderer-id="0" transform="translate(320, 57)"></g><g id="g-root-cu_1448vb71fxex3h-fill" data-item-order="0" data-item-id="cu_1448vb71fxex3h" data-item-class="Curve Stroke ColorFillGray ColorStrokeGray" data-item-index="none" data-renderer-id="0" transform="translate(490, 57)"></g><g id="g-root-tx_tauxdcou_4j6xz71fx50y3-fill" data-item-order="0" data-item-id="tx_tauxdcou_4j6xz71fx50y3" data-item-class="Label Stroke" data-item-index="none" data-renderer-id="0" transform="translate(514, 69)"><g id="tx_tauxdcou_4j6xz71fx50y3-fill" stroke="none" fill="#484848"><g><text style="font: 20px Roboto, sans-serif; white-space: pre;"><tspan x="17.08" y="34" dominant-baseline="ideographic">Taux d'Écoulement du Glacier</tspan></text></g></g></g><g id="g-root-data_1lw5cw31fx7v2d-fill" data-item-order="0" data-item-id="data_1lw5cw31fx7v2d" data-item-class="Icon Stroke" data-item-index="none" data-renderer-id="0" transform="translate(240, 129)"></g><g id="g-root-cu_1luwepv1fxex3h-fill" data-item-order="0" data-item-id="cu_1luwepv1fxex3h" data-item-class="Curve Stroke ColorFillGray ColorStrokeGray" data-item-index="none" data-renderer-id="0" transform="translate(362, 30)"></g><g id="g-root-tx_damstate_1qbyv0j1fx7ua4-fill" data-item-order="0" data-item-id="tx_damstate_1qbyv0j1fx7ua4" data-item-class="Label Stroke" data-item-index="none" data-renderer-id="0" transform="translate(138, 132)"><g id="tx_damstate_1qbyv0j1fx7ua4-fill" stroke="none" fill="#4682e3"><g><text style="font: 20px Roboto, sans-serif; white-space: pre;"><tspan x="14.03" y="34" dominant-baseline="ideographic">DamState</tspan></text></g></g></g><g id="g-root-plur_13zvgjn1fxkjcx-fill" data-item-order="0" data-item-id="plur_13zvgjn1fxkjcx" data-item-class="Icon Stroke" data-item-index="none" data-renderer-id="0" transform="translate(558, 129)"></g><g id="g-root-cu_1qapwub1fxewb3-fill" data-item-order="0" data-item-id="cu_1qapwub1fxewb3" data-item-class="Curve Stroke ColorFillGray ColorStrokeGray" data-item-index="none" data-renderer-id="0" transform="translate(282, 144)"></g><g id="g-root-cu_1qapwub1fxex34-fill" data-item-order="0" data-item-id="cu_1qapwub1fxex34" data-item-class="Curve Stroke ColorFillGray ColorStrokeGray" data-item-index="none" data-renderer-id="0" transform="translate(498, 144)"></g><g id="g-root-tx_systemst_18foyo31fxkiko-fill" data-item-order="0" data-item-id="tx_systemst_18foyo31fxkiko" data-item-class="Label Stroke" data-item-index="none" data-renderer-id="0" transform="translate(594, 132)"><g id="tx_systemst_18foyo31fxkiko-fill" stroke="none" fill="#b65edf"><g><text style="font: 20px Roboto, sans-serif; white-space: pre;"><tspan x="13.64" y="34" dominant-baseline="ideographic">SystemState</tspan></text></g></g></g><g id="g-root-dam_1hgbog31fxq614-fill" data-item-order="0" data-item-id="dam_1hgbog31fxq614" data-item-class="Icon Stroke" data-item-index="none" data-renderer-id="0" transform="translate(390, 153)"></g><g id="g-root-tx_niveaude_18gbiwz1fx52ir-fill" data-item-order="0" data-item-id="tx_niveaude_18gbiwz1fx52ir" data-item-class="Label Stroke" data-item-index="none" data-renderer-id="0" transform="translate(54, 183)"><g id="tx_niveaude_18gbiwz1fx52ir-fill" stroke="none" fill="#484848"><g><text style="font: 20px Roboto, sans-serif; white-space: pre;"><tspan x="12.18" y="34" dominant-baseline="ideographic">Niveau d'Eau Actuel</tspan></text></g></g></g><g id="g-root-cu_1lvivsz1fxeupt-fill" data-item-order="0" data-item-id="cu_1lvivsz1fxeupt" data-item-class="Curve Stroke ColorFillGray ColorStrokeGray" data-item-index="none" data-renderer-id="0" transform="translate(240, 171)"></g><g id="g-root-cu_1czvvk31fxevik-fill" data-item-order="0" data-item-id="cu_1czvvk31fxevik" data-item-class="Curve Stroke ColorFillGray ColorStrokeGray" data-item-index="none" data-renderer-id="0" transform="translate(240, 171)"></g><g id="g-root-cu_1czvvk31fxevim-fill" data-item-order="0" data-item-id="cu_1czvvk31fxevim" data-item-class="Curve Stroke ColorFillGray ColorStrokeGray" data-item-index="none" data-renderer-id="0" transform="translate(240, 171)"></g><g id="g-root-cu_18k2dfn1fxewb2-fill" data-item-order="0" data-item-id="cu_18k2dfn1fxewb2" data-item-class="Curve Stroke ColorFillGray ColorStrokeGray" data-item-index="none" data-renderer-id="0" transform="translate(570, 171)"></g><g id="g-root-cu_1448vb71fxex3d-fill" data-item-order="0" data-item-id="cu_1448vb71fxex3d" data-item-class="Curve Stroke ColorFillGray ColorStrokeGray" data-item-index="none" data-renderer-id="0" transform="translate(570, 171)"></g><g id="g-root-cu_1448vb71fxex3f-fill" data-item-order="0" data-item-id="cu_1448vb71fxex3f" data-item-class="Curve Stroke ColorFillGray ColorStrokeGray" data-item-index="none" data-renderer-id="0" transform="translate(570, 171)"></g><g id="g-root-tx_niveaude_hu0z9f1fx52iw-fill" data-item-order="0" data-item-id="tx_niveaude_hu0z9f1fx52iw" data-item-class="Label Stroke" data-item-index="none" data-renderer-id="0" transform="translate(594, 183)"><g id="tx_niveaude_hu0z9f1fx52iw-fill" stroke="none" fill="#484848"><g><text style="font: 20px Roboto, sans-serif; white-space: pre;"><tspan x="12.59" y="34" dominant-baseline="ideographic">Niveau d'Eau Distinct</tspan></text></g></g></g><g id="g-root-tx_tauxdcou_zkoio31fx53bg-fill" data-item-order="0" data-item-id="tx_tauxdcou_zkoio31fx53bg" data-item-class="Label Stroke" data-item-index="none" data-renderer-id="0" transform="translate(54, 219)"><g id="tx_tauxdcou_zkoio31fx53bg-fill" stroke="none" fill="#484848"><g><text style="font: 20px Roboto, sans-serif; white-space: pre;"><tspan x="16.2" y="34" dominant-baseline="ideographic">Taux d'Écoulement</tspan></text></g></g></g><g id="g-root-tx_systmede_1urs6tf1fxq4g7-fill" data-item-order="0" data-item-id="tx_systmede_1urs6tf1fxq4g7" data-item-class="Label Stroke" data-item-index="none" data-renderer-id="0" transform="translate(354, 207)"><g id="tx_systmede_1urs6tf1fxq4g7-fill" stroke="none" fill="#484848"><g><text style="font: 20px Roboto, sans-serif; white-space: pre;"><tspan x="15.66" y="34" dominant-baseline="ideographic">Système de </tspan><tspan x="19.94" y="58" dominant-baseline="ideographic">Gestion de </tspan><tspan x="46.72" y="82" dominant-baseline="ideographic">l'Eau</tspan></text></g></g></g><g id="g-root-tx_tauxdcou_hu0z9f1fx52ix-fill" data-item-order="0" data-item-id="tx_tauxdcou_hu0z9f1fx52ix" data-item-class="Label Stroke" data-item-index="none" data-renderer-id="0" transform="translate(594, 219)"><g id="tx_tauxdcou_hu0z9f1fx52ix-fill" stroke="none" fill="#484848"><g><text style="font: 20px Roboto, sans-serif; white-space: pre;"><tspan x="15.88" y="34" dominant-baseline="ideographic">Taux d'Écoulement Distinct</tspan></text></g></g></g><g id="g-root-tx_aggregat_qteu0z1fxaps8-fill" data-item-order="0" data-item-id="tx_aggregat_qteu0z1fxaps8" data-item-class="Label Stroke" data-item-index="none" data-renderer-id="0" transform="translate(146, 18)"><g id="tx_aggregat_qteu0z1fxaps8-fill" stroke="none" fill="#3bc482"><g><text style="font: 20px Roboto, sans-serif; white-space: pre;"><tspan x="15.27" y="34" dominant-baseline="ideographic">AggregatedInflow</tspan></text></g></g></g><g id="g-root-tx_tauxdent_de7h4z1fx53b6-fill" data-item-order="0" data-item-id="tx_tauxdent_de7h4z1fx53b6" data-item-class="Label Stroke" data-item-index="none" data-renderer-id="0" transform="translate(594, 255)"><g id="tx_tauxdent_de7h4z1fx53b6-fill" stroke="none" fill="#484848"><g><text style="font: 20px Roboto, sans-serif; white-space: pre;"><tspan x="16.13" y="34" dominant-baseline="ideographic">Taux d'Entrée Distinct</tspan></text></g></g></g><g id="g-root-cu_1hfpdoj1fxeuq6-fill" data-item-order="0" data-item-id="cu_1hfpdoj1fxeuq6" data-item-class="Curve Stroke ColorFillGray ColorStrokeGray" data-item-index="none" data-renderer-id="0" transform="translate(362, 303)"></g><g id="g-root-cu_1luwepv1fxex3e-fill" data-item-order="0" data-item-id="cu_1luwepv1fxex3e" data-item-class="Curve Stroke ColorFillGray ColorStrokeGray" data-item-index="none" data-renderer-id="0" transform="translate(442, 303)"></g><g id="g-root-low_i0w41v1fxnd39-fill" data-item-order="0" data-item-id="low_i0w41v1fxnd39" data-item-class="Icon Stroke" data-item-index="none" data-renderer-id="0" transform="translate(478, 15)"></g><g id="g-root-1_4l2d8j1fxeux9-fill" data-item-order="0" data-item-id="1_4l2d8j1fxeux9" data-item-class="Icon Stroke" data-item-index="none" data-renderer-id="0" transform="translate(320, 351)"></g><g id="g-root-rate_me7szn1fxanep-fill" data-item-order="0" data-item-id="rate_me7szn1fxanep" data-item-class="Icon Stroke" data-item-index="none" data-renderer-id="0" transform="translate(320, 15)"></g><g id="g-root-tx_composan_dg2web1fxexac-fill" data-item-order="0" data-item-id="tx_composan_dg2web1fxexac" data-item-class="Label Stroke" data-item-index="none" data-renderer-id="0" transform="translate(170, 354)"><g id="tx_composan_dg2web1fxexac-fill" stroke="none" fill="#dd8433"><g><text style="font: 20px Roboto, sans-serif; white-space: pre;"><tspan x="13.49" y="34" dominant-baseline="ideographic">Composants UI</tspan></text></g></g></g><g id="g-root-wind_18lxpj71fxanm0-fill" data-item-order="0" data-item-id="wind_18lxpj71fxanm0" data-item-class="Icon Stroke" data-item-index="none" data-renderer-id="0" transform="translate(478, 351)"></g><g id="g-root-tx_errorsub_1lwrqtf1fxap6v-fill" data-item-order="0" data-item-id="tx_errorsub_1lwrqtf1fxap6v" data-item-class="Label Stroke" data-item-index="none" data-renderer-id="0" transform="translate(514, 354)"><g id="tx_errorsub_1lwrqtf1fxap6v-fill" stroke="none" fill="#e15e5a"><g><text style="font: 20px Roboto, sans-serif; white-space: pre;"><tspan x="15.31" y="34" dominant-baseline="ideographic">ErrorSubject</tspan></text></g></g></g><g id="g-root-tx_tableaud_4j6xz71fx50y4-fill" data-item-order="0" data-item-id="tx_tableaud_4j6xz71fx50y4" data-item-class="Label Stroke" data-item-index="none" data-renderer-id="0" transform="translate(2, 405)"><g id="tx_tableaud_4j6xz71fx50y4-fill" stroke="none" fill="#484848"><g><text style="font: 20px Roboto, sans-serif; white-space: pre;"><tspan x="13.06" y="34" dominant-baseline="ideographic">Tableau de Bord du Système d'Eau</tspan></text></g></g></g><g id="g-root-cu_zp1u9v1fxeuq0-fill" data-item-order="0" data-item-id="cu_zp1u9v1fxeuq0" data-item-class="Curve Stroke ColorFillGray ColorStrokeGray" data-item-index="none" data-renderer-id="0" transform="translate(320, 393)"></g><g id="g-root-cu_zp1u9v1fxeuq3-fill" data-item-order="0" data-item-id="cu_zp1u9v1fxeuq3" data-item-class="Curve Stroke ColorFillGray ColorStrokeGray" data-item-index="none" data-renderer-id="0" transform="translate(320, 393)"></g><g id="g-root-cu_zp1u9v1fxeuq5-fill" data-item-order="0" data-item-id="cu_zp1u9v1fxeuq5" data-item-class="Curve Stroke ColorFillGray ColorStrokeGray" data-item-index="none" data-renderer-id="0" transform="translate(320, 393)"></g><g id="g-root-cu_1hfpdoj1fxevi8-fill" data-item-order="0" data-item-id="cu_1hfpdoj1fxevi8" data-item-class="Curve Stroke ColorFillGray ColorStrokeGray" data-item-index="none" data-renderer-id="0" transform="translate(490, 393)"></g><g id="g-root-tx_errorobs_v5hhmr1fx50xy-fill" data-item-order="0" data-item-id="tx_errorobs_v5hhmr1fx50xy" data-item-class="Label Stroke" data-item-index="none" data-renderer-id="0" transform="translate(514, 405)"><g id="tx_errorobs_v5hhmr1fx50xy-fill" stroke="none" fill="#484848"><g><text style="font: 20px Roboto, sans-serif; white-space: pre;"><tspan x="16.6" y="34" dominant-baseline="ideographic">ErrorObservable</tspan></text></g></g></g><g id="g-root-tx_graphiqu_3dfur1fx51qd-fill" data-item-order="0" data-item-id="tx_graphiqu_3dfur1fx51qd" data-item-class="Label Stroke" data-item-index="none" data-renderer-id="0" transform="translate(62, 441)"><g id="tx_graphiqu_3dfur1fx51qd-fill" stroke="none" fill="#484848"><g><text style="font: 20px Roboto, sans-serif; white-space: pre;"><tspan x="17.34" y="34" dominant-baseline="ideographic">Graphique du Niveau d'Eau</tspan></text></g></g></g><g id="g-root-tx_notifica_3dfur1fx51qe-fill" data-item-order="0" data-item-id="tx_notifica_3dfur1fx51qe" data-item-class="Label Stroke" data-item-index="none" data-renderer-id="0" transform="translate(134, 477)"><g id="tx_notifica_3dfur1fx51qe-fill" stroke="none" fill="#484848"><g><text style="font: 20px Roboto, sans-serif; white-space: pre;"><tspan x="11.94" y="34" dominant-baseline="ideographic">Notification d'Erreur</tspan></text></g></g></g><g id="g-root-cu_1qapwub1fxex37-fill" data-item-order="0" data-item-id="cu_1qapwub1fxex37" data-item-class="Curve Stroke ColorFillGray ColorStrokeGray" data-item-index="none" data-renderer-id="0" transform="translate(442, 30)"></g><g id="g-root-tx_tauxdent_zkoio31fx53bh-fill" data-item-order="0" data-item-id="tx_tauxdent_zkoio31fx53bh" data-item-class="Label Stroke" data-item-index="none" data-renderer-id="0" transform="translate(102, 255)"><g id="tx_tauxdent_zkoio31fx53bh-fill" stroke="none" fill="#484848"><g><text style="font: 20px Roboto, sans-serif; white-space: pre;"><tspan x="16.46" y="34" dominant-baseline="ideographic">Taux d'Entrée</tspan></text></g></g></g><g id="g-root-ro_1d14ner1fxq3nl-stroke" data-item-order="-29232" data-item-id="ro_1d14ner1fxq3nl" data-item-class="Shape Stroke Fill" data-item-index="none" data-renderer-id="0" transform="translate(330, 129)"><g id="ro_1d14ner1fxq3nl-stroke" fill="none" stroke-linecap="round" stroke-linejoin="round" stroke-miterlimit="4" stroke="#484848" stroke-width="2"><g><path d="M 34 10L 154 10C 154 10 178 10 178 34L 178 160C 178 160 178 184 154 184L 34 184C 34 184 10 184 10 160L 10 34C 10 34 10 10 34 10"></path></g></g></g><g id="g-root-ro_diksqr1fxao7e-stroke" data-item-order="-12312" data-item-id="ro_diksqr1fxao7e" data-item-class="Shape Stroke Fill" data-item-index="none" data-renderer-id="0" transform="translate(134, 3)"><g id="ro_diksqr1fxao7e-stroke" fill="none" stroke-linecap="round" stroke-linejoin="round" stroke-miterlimit="4" stroke="#3bc482" stroke-width="2"><g><path d="M 22 10L 226 10C 226 10 238 10 238 22L 238 52C 238 52 238 64 226 64L 22 64C 22 64 10 64 10 52L 10 22C 10 22 10 10 22 10"></path></g></g></g><g id="g-root-ro_58v431fxevpi-stroke" data-item-order="-11016" data-item-id="ro_58v431fxevpi" data-item-class="Shape Stroke Fill" data-item-index="none" data-renderer-id="0" transform="translate(158, 339)"><g id="ro_58v431fxevpi-stroke" fill="none" stroke-linecap="round" stroke-linejoin="round" stroke-miterlimit="4" stroke="#dd8433" stroke-width="2"><g><path d="M 22 10L 202 10C 202 10 214 10 214 22L 214 52C 214 52 214 64 202 64L 22 64C 22 64 10 64 10 52L 10 22C 10 22 10 10 22 10"></path></g></g></g><g id="g-root-ro_8vvzib1fxopam-stroke" data-item-order="-9720" data-item-id="ro_8vvzib1fxopam" data-item-class="Shape Stroke Fill" data-item-index="none" data-renderer-id="0" transform="translate(466, 3)"><g id="ro_8vvzib1fxopam-stroke" fill="none" stroke-linecap="round" stroke-linejoin="round" stroke-miterlimit="4" stroke="#17b0e3" stroke-width="2"><g><path d="M 22 10L 178 10C 178 10 190 10 190 22L 190 52C 190 52 190 64 178 64L 22 64C 22 64 10 64 10 52L 10 22C 10 22 10 10 22 10"></path></g></g></g><g id="g-root-ro_18lxpj71fxanm1-stroke" data-item-order="-9720" data-item-id="ro_18lxpj71fxanm1" data-item-class="Shape Stroke Fill" data-item-index="none" data-renderer-id="0" transform="translate(466, 339)"><g id="ro_18lxpj71fxanm1-stroke" fill="none" stroke-linecap="round" stroke-linejoin="round" stroke-miterlimit="4" stroke="#e15e5a" stroke-width="2"><g><path d="M 22 10L 178 10C 178 10 190 10 190 22L 190 52C 190 52 190 64 178 64L 22 64C 22 64 10 64 10 52L 10 22C 10 22 10 10 22 10"></path></g></g></g><g id="g-root-ro_13zvgjn1fxkjcy-stroke" data-item-order="-9720" data-item-id="ro_13zvgjn1fxkjcy" data-item-class="Shape Stroke Fill" data-item-index="none" data-renderer-id="0" transform="translate(546, 117)"><g id="ro_13zvgjn1fxkjcy-stroke" fill="none" stroke-linecap="round" stroke-linejoin="round" stroke-miterlimit="4" stroke="#b65edf" stroke-width="2"><g><path d="M 22 10L 178 10C 178 10 190 10 190 22L 190 52C 190 52 190 64 178 64L 22 64C 22 64 10 64 10 52L 10 22C 10 22 10 10 22 10"></path></g></g></g><g id="g-root-ro_1lw5cw31fx7v2e-stroke" data-item-order="-8424" data-item-id="ro_1lw5cw31fx7v2e" data-item-class="Shape Stroke Fill" data-item-index="none" data-renderer-id="0" transform="translate(126, 117)"><g id="ro_1lw5cw31fx7v2e-stroke" fill="none" stroke-linecap="round" stroke-linejoin="round" stroke-miterlimit="4" stroke="#4682e3" stroke-width="2"><g><path d="M 22 10L 154 10C 154 10 166 10 166 22L 166 52C 166 52 166 64 154 64L 22 64C 22 64 10 64 10 52L 10 22C 10 22 10 10 22 10"></path></g></g></g><g id="g-root-tx_glaciers_mgpm6b1fxncb0-stroke" data-item-order="0" data-item-id="tx_glaciers_mgpm6b1fxncb0" data-item-class="Label Stroke" data-item-index="none" data-renderer-id="0" transform="translate(514, 18)"></g><g id="g-root-tx_aggregat_m9uhdv1fx51qn-stroke" data-item-order="0" data-item-id="tx_aggregat_m9uhdv1fx51qn" data-item-class="Label Stroke" data-item-index="none" data-renderer-id="0" transform="translate(146, 69)"></g><g id="g-root-cu_18k2dfn1fxewaz-stroke" data-item-order="0" data-item-id="cu_18k2dfn1fxewaz" data-item-class="Curve Stroke ColorFillGray ColorStrokeGray" data-item-index="none" data-renderer-id="0" transform="translate(320, 57)"><g id="cu_18k2dfn1fxewaz-stroke" fill="none" stroke-linecap="round" stroke-linejoin="round" stroke-miterlimit="4" stroke="#888888" stroke-width="2" stroke-dasharray="5.0, 7.0"><g><path d="M 28 10L 28 13L 28 22C 27.999999 28.627417 22.627416 34 15.999999 34L 15.9 34L 10 34"></path></g></g></g><g id="g-root-cu_1448vb71fxex3h-stroke" data-item-order="0" data-item-id="cu_1448vb71fxex3h" data-item-class="Curve Stroke ColorFillGray ColorStrokeGray" data-item-index="none" data-renderer-id="0" transform="translate(490, 57)"><g id="cu_1448vb71fxex3h-stroke" fill="none" stroke-linecap="round" stroke-linejoin="round" stroke-miterlimit="4" stroke="#888888" stroke-width="2" stroke-dasharray="5.0, 7.0"><g><path d="M 10 10L 10 13L 10 22C 10 28.627416 15.372583 33.999999 22 33.999999L 22.1 34L 28 34"></path></g></g></g><g id="g-root-tx_tauxdcou_4j6xz71fx50y3-stroke" data-item-order="0" data-item-id="tx_tauxdcou_4j6xz71fx50y3" data-item-class="Label Stroke" data-item-index="none" data-renderer-id="0" transform="translate(514, 69)"></g><g id="g-root-data_1lw5cw31fx7v2d-stroke" data-item-order="0" data-item-id="data_1lw5cw31fx7v2d" data-item-class="Icon Stroke" data-item-index="none" data-renderer-id="0" transform="translate(240, 129)"><g id="data_1lw5cw31fx7v2d-stroke" fill="none" stroke-linecap="round" stroke-linejoin="round" stroke-miterlimit="4" stroke="#4682e3" stroke-width="2"><g><path d="M 33.125 35.3125L 10.625 35.3125L 16.875 14.6875L 39.375 14.6875L 33.125 35.3125Z"></path></g></g></g><g id="g-root-cu_1luwepv1fxex3h-stroke" data-item-order="0" data-item-id="cu_1luwepv1fxex3h" data-item-class="Curve Stroke ColorFillGray ColorStrokeGray" data-item-index="none" data-renderer-id="0" transform="translate(362, 30)"><g id="cu_1luwepv1fxex3h-stroke" fill="none" stroke-linecap="round" stroke-linejoin="round" stroke-miterlimit="4" stroke="#888888" stroke-width="2" stroke-dasharray="5.0, 7.0"><g><path d="M 34 109L 34 96.6L 34 30.9C 33.999998 19.357248 24.64275 10 13.1 10L 13 10L 10 10"></path></g></g></g><g id="g-root-tx_damstate_1qbyv0j1fx7ua4-stroke" data-item-order="0" data-item-id="tx_damstate_1qbyv0j1fx7ua4" data-item-class="Label Stroke" data-item-index="none" data-renderer-id="0" transform="translate(138, 132)"></g><g id="g-root-plur_13zvgjn1fxkjcx-stroke" data-item-order="0" data-item-id="plur_13zvgjn1fxkjcx" data-item-class="Icon Stroke" data-item-index="none" data-renderer-id="0" transform="translate(558, 129)"><g id="plur_13zvgjn1fxkjcx-stroke" fill="none" stroke-linecap="round" stroke-linejoin="round" stroke-miterlimit="4" stroke="#b65edf" stroke-width="2"><g><path d="M 24.706251 39.375L 24.706251 22.51125M 20.95875 26.8825L 20.95875 37.501251L 17.83625 37.501251L 17.83625 39.375M 13.46375 39.375L 13.46375 33.75375L 17.21125 33.75375L 17.21125 28.75625M 28.453749 26.8825L 28.453749 37.501251L 31.577499 37.501251L 31.577499 39.375M 35.950001 39.375L 35.950001 33.75375L 32.202499 33.75375L 32.202499 28.75625M 34.375 27.125C 36.988712 26.458843 38.800488 24.081795 38.75 21.385C 38.751179 19.762434 38.091461 18.209373 36.922871 17.083708C 35.754284 15.958043 34.177635 15.356878 32.556248 15.41875C 30.92778 11.962387 27.162411 10.050786 23.411076 10.775928C 19.659737 11.501071 16.87804 14.678235 16.655001 18.4925C 15.33392 18.214674 13.957981 18.547033 12.909385 19.397261C 11.860787 20.247488 11.251219 21.525023 11.25 22.875C 11.132792 24.958664 12.587543 26.802704 14.64125 27.17375"></path></g></g></g><g id="g-root-cu_1qapwub1fxewb3-stroke" data-item-order="0" data-item-id="cu_1qapwub1fxewb3" data-item-class="Curve Stroke ColorFillGray ColorStrokeGray" data-item-index="none" data-renderer-id="0" transform="translate(282, 144)"><g id="cu_1qapwub1fxewb3-stroke" fill="none" stroke-linecap="round" stroke-linejoin="round" stroke-miterlimit="4" stroke="#888888" stroke-width="2" stroke-dasharray="5.0, 7.0"><g><path d="M 58 53L 55 53L 54.9 53C 43.357252 53.000001 34.000002 43.642752 34.000002 32.1L 34 32L 34 30.9C 33.999998 19.357248 24.64275 10 13.1 10L 13 10L 10 10"></path></g></g></g><g id="g-root-cu_1qapwub1fxex34-stroke" data-item-order="0" data-item-id="cu_1qapwub1fxex34" data-item-class="Curve Stroke ColorFillGray ColorStrokeGray" data-item-index="none" data-renderer-id="0" transform="translate(498, 144)"><g id="cu_1qapwub1fxex34-stroke" fill="none" stroke-linecap="round" stroke-linejoin="round" stroke-miterlimit="4" stroke="#888888" stroke-width="2" stroke-dasharray="5.0, 7.0"><g><path d="M 10 53L 13 53L 13.1 53C 24.642753 52.999998 34.000001 43.642749 34 32.099998L 34 32L 34 30.9C 33.999999 19.357249 43.357248 10.000001 54.899999 10.000002L 55 10L 58 10"></path></g></g></g><g id="g-root-tx_systemst_18foyo31fxkiko-stroke" data-item-order="0" data-item-id="tx_systemst_18foyo31fxkiko" data-item-class="Label Stroke" data-item-index="none" data-renderer-id="0" transform="translate(594, 132)"></g><g id="g-root-dam_1hgbog31fxq614-stroke" data-item-order="0" data-item-id="dam_1hgbog31fxq614" data-item-class="Icon Stroke" data-item-index="none" data-renderer-id="0" transform="translate(390, 153)"><g id="dam_1hgbog31fxq614-stroke" fill="none" stroke-linecap="round" stroke-linejoin="round" stroke-miterlimit="4" stroke="#484848" stroke-width="2"><g><path d="M 56 39.776001C 51.661999 40.818001 48.967999 35.818001 48.967999 35.818001C 47.735798 38.189857 45.35664 39.748177 42.689999 39.93C 40.049263 39.684467 37.702812 38.14365 36.428001 35.818001C 35.131844 38.210651 32.712639 39.784565 30.000002 40M 56 47.846001C 51.661999 48.888 48.962002 43.888 48.962002 43.888C 47.732635 46.260601 45.354084 47.819515 42.688 48C 40.046024 47.753635 37.698109 46.213333 36.419998 43.888C 35.753479 45.052479 34.844242 46.059937 33.754002 46.842003M 56 30.775999C 51.661999 31.818001 48.967999 26.818001 48.967999 26.818001C 47.735798 29.189859 45.35664 30.748175 42.689999 30.93C 40.049263 30.684467 37.702812 29.14365 36.428001 26.818001C 35.131844 29.210649 32.712639 30.784565 30.000002 31.000002M 29.5 50C 29.896374 50.000504 30.25563 49.766846 30.41589 49.404312C 30.576149 49.041782 30.507156 48.618813 30.24 48.326C 27.188 44.978001 21.228001 36.246002 21 18.986C 20.992344 18.43919 20.546864 17.999947 20 18L 13 18C 12.447716 18 12 18.447716 12 19L 12 49C 12 49.552284 12.447716 50 13 50Z"></path></g></g></g><g id="g-root-tx_niveaude_18gbiwz1fx52ir-stroke" data-item-order="0" data-item-id="tx_niveaude_18gbiwz1fx52ir" data-item-class="Label Stroke" data-item-index="none" data-renderer-id="0" transform="translate(54, 183)"></g><g id="g-root-cu_1lvivsz1fxeupt-stroke" data-item-order="0" data-item-id="cu_1lvivsz1fxeupt" data-item-class="Curve Stroke ColorFillGray ColorStrokeGray" data-item-index="none" data-renderer-id="0" transform="translate(240, 171)"><g id="cu_1lvivsz1fxeupt-stroke" fill="none" stroke-linecap="round" stroke-linejoin="round" stroke-miterlimit="4" stroke="#888888" stroke-width="2" stroke-dasharray="5.0, 7.0"><g><path d="M 28 10L 28 22L 28 34L 19 34L 10 34"></path></g></g></g><g id="g-root-cu_1czvvk31fxevik-stroke" data-item-order="0" data-item-id="cu_1czvvk31fxevik" data-item-class="Curve Stroke ColorFillGray ColorStrokeGray" data-item-index="none" data-renderer-id="0" transform="translate(240, 171)"><g id="cu_1czvvk31fxevik-stroke" fill="none" stroke-linecap="round" stroke-linejoin="round" stroke-miterlimit="4" stroke="#888888" stroke-width="2" stroke-dasharray="5.0, 7.0"><g><path d="M 28 10L 28 40L 28 70L 19 70L 10 70"></path></g></g></g><g id="g-root-cu_1czvvk31fxevim-stroke" data-item-order="0" data-item-id="cu_1czvvk31fxevim" data-item-class="Curve Stroke ColorFillGray ColorStrokeGray" data-item-index="none" data-renderer-id="0" transform="translate(240, 171)"><g id="cu_1czvvk31fxevim-stroke" fill="none" stroke-linecap="round" stroke-linejoin="round" stroke-miterlimit="4" stroke="#888888" stroke-width="2" stroke-dasharray="5.0, 7.0"><g><path d="M 28 10L 28 22L 28 94C 28.000002 100.627415 22.627419 105.999998 16.000002 105.999998L 15.9 106L 10 106"></path></g></g></g><g id="g-root-cu_18k2dfn1fxewb2-stroke" data-item-order="0" data-item-id="cu_18k2dfn1fxewb2" data-item-class="Curve Stroke ColorFillGray ColorStrokeGray" data-item-index="none" data-renderer-id="0" transform="translate(570, 171)"><g id="cu_18k2dfn1fxewb2-stroke" fill="none" stroke-linecap="round" stroke-linejoin="round" stroke-miterlimit="4" stroke="#888888" stroke-width="2" stroke-dasharray="5.0, 7.0"><g><path d="M 10 10L 10 22L 10 34L 19 34L 28 34"></path></g></g></g><g id="g-root-cu_1448vb71fxex3d-stroke" data-item-order="0" data-item-id="cu_1448vb71fxex3d" data-item-class="Curve Stroke ColorFillGray ColorStrokeGray" data-item-index="none" data-renderer-id="0" transform="translate(570, 171)"><g id="cu_1448vb71fxex3d-stroke" fill="none" stroke-linecap="round" stroke-linejoin="round" stroke-miterlimit="4" stroke="#888888" stroke-width="2" stroke-dasharray="5.0, 7.0"><g><path d="M 10 10L 10 40L 10 70L 19 70L 28 70"></path></g></g></g><g id="g-root-cu_1448vb71fxex3f-stroke" data-item-order="0" data-item-id="cu_1448vb71fxex3f" data-item-class="Curve Stroke ColorFillGray ColorStrokeGray" data-item-index="none" data-renderer-id="0" transform="translate(570, 171)"><g id="cu_1448vb71fxex3f-stroke" fill="none" stroke-linecap="round" stroke-linejoin="round" stroke-miterlimit="4" stroke="#888888" stroke-width="2" stroke-dasharray="5.0, 7.0"><g><path d="M 10 10L 10 22L 10 94C 10.000004 100.627423 15.372587 106.000006 22.000005 106.000005L 22.1 106L 28 106"></path></g></g></g><g id="g-root-tx_niveaude_hu0z9f1fx52iw-stroke" data-item-order="0" data-item-id="tx_niveaude_hu0z9f1fx52iw" data-item-class="Label Stroke" data-item-index="none" data-renderer-id="0" transform="translate(594, 183)"></g><g id="g-root-tx_tauxdcou_zkoio31fx53bg-stroke" data-item-order="0" data-item-id="tx_tauxdcou_zkoio31fx53bg" data-item-class="Label Stroke" data-item-index="none" data-renderer-id="0" transform="translate(54, 219)"></g><g id="g-root-tx_systmede_1urs6tf1fxq4g7-stroke" data-item-order="0" data-item-id="tx_systmede_1urs6tf1fxq4g7" data-item-class="Label Stroke" data-item-index="none" data-renderer-id="0" transform="translate(354, 207)"></g><g id="g-root-tx_tauxdcou_hu0z9f1fx52ix-stroke" data-item-order="0" data-item-id="tx_tauxdcou_hu0z9f1fx52ix" data-item-class="Label Stroke" data-item-index="none" data-renderer-id="0" transform="translate(594, 219)"></g><g id="g-root-tx_aggregat_qteu0z1fxaps8-stroke" data-item-order="0" data-item-id="tx_aggregat_qteu0z1fxaps8" data-item-class="Label Stroke" data-item-index="none" data-renderer-id="0" transform="translate(146, 18)"></g><g id="g-root-tx_tauxdent_de7h4z1fx53b6-stroke" data-item-order="0" data-item-id="tx_tauxdent_de7h4z1fx53b6" data-item-class="Label Stroke" data-item-index="none" data-renderer-id="0" transform="translate(594, 255)"></g><g id="g-root-cu_1hfpdoj1fxeuq6-stroke" data-item-order="0" data-item-id="cu_1hfpdoj1fxeuq6" data-item-class="Curve Stroke ColorFillGray ColorStrokeGray" data-item-index="none" data-renderer-id="0" transform="translate(362, 303)"><g id="cu_1hfpdoj1fxeuq6-stroke" fill="none" stroke-linecap="round" stroke-linejoin="round" stroke-miterlimit="4" stroke="#888888" stroke-width="2" stroke-dasharray="5.0, 7.0"><g><path d="M 34 10L 34 17.9L 34 52.1C 34 63.642753 24.64275 73.000002 13.099999 73.000001L 13 73L 10 73"></path></g></g></g><g id="g-root-cu_1luwepv1fxex3e-stroke" data-item-order="0" data-item-id="cu_1luwepv1fxex3e" data-item-class="Curve Stroke ColorFillGray ColorStrokeGray" data-item-index="none" data-renderer-id="0" transform="translate(442, 303)"><g id="cu_1luwepv1fxex3e-stroke" fill="none" stroke-linecap="round" stroke-linejoin="round" stroke-miterlimit="4" stroke="#888888" stroke-width="2" stroke-dasharray="5.0, 7.0"><g><path d="M 10 10L 10 17.9L 10 52.1C 9.999998 63.64275 19.357246 72.999999 30.899997 72.999999L 31 73L 34 73"></path></g></g></g><g id="g-root-low_i0w41v1fxnd39-stroke" data-item-order="0" data-item-id="low_i0w41v1fxnd39" data-item-class="Icon Stroke" data-item-index="none" data-renderer-id="0" transform="translate(478, 15)"><g id="low_i0w41v1fxnd39-stroke" fill="none" stroke-linecap="round" stroke-linejoin="round" stroke-miterlimit="4" stroke="#17b0e3" stroke-width="2"><g><path d="M 18.125 33.125L 14.375 36.875L 10.625 33.125M 14.375 36.875L 14.375 23.75M 18.125 38.125L 10.625 38.125M 18.125 22.5C 18.125 28.368027 22.881975 33.125 28.75 33.125C 34.618027 33.125 39.375 28.368027 39.375 22.5C 39.375 16.631975 34.618027 11.875 28.75 11.875C 22.881975 11.875 18.125 16.631975 18.125 22.5M 23.75 17.5C 23.75 18.190355 24.309643 18.75 25 18.75C 25.690357 18.75 26.25 18.190355 26.25 17.5C 26.25 16.809645 25.690357 16.25 25 16.25C 24.309643 16.25 23.75 16.809645 23.75 17.5M 32.5 18.75L 31.25 18.75C 28.488577 18.75 26.25 20.988577 26.25 23.75C 26.25 26.511423 28.488577 28.75 31.25 28.75L 32.5 28.75"></path></g></g></g><g id="g-root-1_4l2d8j1fxeux9-stroke" data-item-order="0" data-item-id="1_4l2d8j1fxeux9" data-item-class="Icon Stroke" data-item-index="none" data-renderer-id="0" transform="translate(320, 351)"><g id="1_4l2d8j1fxeux9-stroke" fill="none" stroke-linecap="round" stroke-linejoin="round" stroke-miterlimit="4" stroke="#dd8433" stroke-width="2"><g><path d="M 18.75 33.125C 18.75 36.576778 21.548222 39.375 25 39.375C 28.45178 39.375 31.25 36.576778 31.25 33.125C 31.25 29.673222 28.45178 26.875 25 26.875C 21.548222 26.875 18.75 29.673222 18.75 33.125M 32.5 36.875L 36.875 36.875C 38.255714 36.875 39.375 35.755714 39.375 34.375L 39.375 31.875C 39.375 30.494287 38.255714 29.375 36.875 29.375L 32.5 29.375M 17.5 29.375L 13.125 29.375C 11.744288 29.375 10.625 30.494287 10.625 31.875L 10.625 34.375C 10.625 35.755714 11.744288 36.875 13.125 36.875L 17.5 36.875M 15.625 31.875L 13.75 33.125L 15.625 34.375M 34.375 34.375L 36.25 33.125L 34.375 31.875M 23.125 30.625L 23.125 35.625L 28.125 33.125L 23.125 30.625ZM 13.75 29.375L 13.75 11.875C 13.75 11.184644 14.309644 10.625 15 10.625L 35 10.625C 35.690353 10.625 36.25 11.184644 36.25 11.875L 36.25 29.375"></path></g></g></g><g id="g-root-rate_me7szn1fxanep-stroke" data-item-order="0" data-item-id="rate_me7szn1fxanep" data-item-class="Icon Stroke" data-item-index="none" data-renderer-id="0" transform="translate(320, 15)"><g id="rate_me7szn1fxanep-stroke" fill="none" stroke-linecap="round" stroke-linejoin="round" stroke-miterlimit="4" stroke="#3bc482" stroke-width="2"><g><path d="M 38.068748 25L 25 39.375L 11.93125 25L 38.068748 25ZM 38.068748 25L 25 10.625L 11.93125 25L 38.068748 25Z"></path></g></g></g><g id="g-root-tx_composan_dg2web1fxexac-stroke" data-item-order="0" data-item-id="tx_composan_dg2web1fxexac" data-item-class="Label Stroke" data-item-index="none" data-renderer-id="0" transform="translate(170, 354)"></g><g id="g-root-wind_18lxpj71fxanm0-stroke" data-item-order="0" data-item-id="wind_18lxpj71fxanm0" data-item-class="Icon Stroke" data-item-index="none" data-renderer-id="0" transform="translate(478, 351)"><g id="wind_18lxpj71fxanm0-stroke" fill="none" stroke-linecap="round" stroke-linejoin="round" stroke-miterlimit="4" stroke="#e15e5a" stroke-width="2"><g><path d="M 36.875 37.8125C 38.255714 37.8125 39.375 36.693214 39.375 35.3125L 39.375 14.6875C 39.375 13.306788 38.255714 12.1875 36.875 12.1875L 13.125 12.1875C 11.744288 12.1875 10.625 13.306788 10.625 14.6875L 10.625 35.3125C 10.625 36.693214 11.744288 37.8125 13.125 37.8125M 10.625 18.4375L 39.375 18.4375M 22.5 15.625C 22.327412 15.625 22.1875 15.485088 22.1875 15.3125C 22.1875 15.139912 22.327412 15 22.5 15M 22.5 15.625C 22.672588 15.625 22.8125 15.485088 22.8125 15.3125C 22.8125 15.139912 22.672588 15 22.5 15M 18.75 15.625C 18.577412 15.625 18.4375 15.485088 18.4375 15.3125C 18.4375 15.139912 18.577412 15 18.75 15M 18.75 15.625C 18.922588 15.625 19.0625 15.485088 19.0625 15.3125C 19.0625 15.139912 18.922588 15 18.75 15M 15 15.625C 14.827411 15.625 14.6875 15.485088 14.6875 15.3125C 14.6875 15.139912 14.827411 15 15 15M 15 15.625C 15.172588 15.625 15.3125 15.485088 15.3125 15.3125C 15.3125 15.139912 15.172588 15 15 15M 22.692501 23.557499L 22.692501 28.17375C 22.692389 29.448225 23.725525 30.481451 25 30.481451C 26.274475 30.481451 27.30761 29.448225 27.307499 28.17375L 27.307499 23.557499C 27.307388 22.28318 26.274317 21.250202 25 21.250202C 23.725681 21.250202 22.692612 22.28318 22.692499 23.557499ZM 19.186251 21.25L 14.57 28.17375L 20.725 28.17375M 19.186251 21.25L 19.186251 30.481251M 33.891251 21.25L 29.276249 28.17375L 35.43 28.17375M 33.891251 21.25L 33.891251 30.481251M 10 10M 16.559999 33.293751L 20.27125 37.00375M 20.27125 33.293751L 16.559999 37.00375M 29.72875 33.293751L 33.440002 37.00375M 33.440002 33.293751L 29.72875 37.00375M 23.145 33.293751L 26.855 37.00375M 26.855 33.293751L 23.145 37.00375"></path></g></g></g><g id="g-root-tx_errorsub_1lwrqtf1fxap6v-stroke" data-item-order="0" data-item-id="tx_errorsub_1lwrqtf1fxap6v" data-item-class="Label Stroke" data-item-index="none" data-renderer-id="0" transform="translate(514, 354)"></g><g id="g-root-tx_tableaud_4j6xz71fx50y4-stroke" data-item-order="0" data-item-id="tx_tableaud_4j6xz71fx50y4" data-item-class="Label Stroke" data-item-index="none" data-renderer-id="0" transform="translate(2, 405)"></g><g id="g-root-cu_zp1u9v1fxeuq0-stroke" data-item-order="0" data-item-id="cu_zp1u9v1fxeuq0" data-item-class="Curve Stroke ColorFillGray ColorStrokeGray" data-item-index="none" data-renderer-id="0" transform="translate(320, 393)"><g id="cu_zp1u9v1fxeuq0-stroke" fill="none" stroke-linecap="round" stroke-linejoin="round" stroke-miterlimit="4" stroke="#888888" stroke-width="2" stroke-dasharray="5.0, 7.0"><g><path d="M 28 10L 28 22L 28 34L 19 34L 10 34"></path></g></g></g><g id="g-root-cu_zp1u9v1fxeuq3-stroke" data-item-order="0" data-item-id="cu_zp1u9v1fxeuq3" data-item-class="Curve Stroke ColorFillGray ColorStrokeGray" data-item-index="none" data-renderer-id="0" transform="translate(320, 393)"><g id="cu_zp1u9v1fxeuq3-stroke" fill="none" stroke-linecap="round" stroke-linejoin="round" stroke-miterlimit="4" stroke="#888888" stroke-width="2" stroke-dasharray="5.0, 7.0"><g><path d="M 28 10L 28 40L 28 70L 19 70L 10 70"></path></g></g></g><g id="g-root-cu_zp1u9v1fxeuq5-stroke" data-item-order="0" data-item-id="cu_zp1u9v1fxeuq5" data-item-class="Curve Stroke ColorFillGray ColorStrokeGray" data-item-index="none" data-renderer-id="0" transform="translate(320, 393)"><g id="cu_zp1u9v1fxeuq5-stroke" fill="none" stroke-linecap="round" stroke-linejoin="round" stroke-miterlimit="4" stroke="#888888" stroke-width="2" stroke-dasharray="5.0, 7.0"><g><path d="M 28 10L 28 22L 28 94C 28.000002 100.627415 22.627419 105.999998 16.000002 105.999998L 15.9 106L 10 106"></path></g></g></g><g id="g-root-cu_1hfpdoj1fxevi8-stroke" data-item-order="0" data-item-id="cu_1hfpdoj1fxevi8" data-item-class="Curve Stroke ColorFillGray ColorStrokeGray" data-item-index="none" data-renderer-id="0" transform="translate(490, 393)"><g id="cu_1hfpdoj1fxevi8-stroke" fill="none" stroke-linecap="round" stroke-linejoin="round" stroke-miterlimit="4" stroke="#888888" stroke-width="2" stroke-dasharray="5.0, 7.0"><g><path d="M 10 10L 10 13L 10 22C 10 28.627416 15.372583 33.999999 22 33.999999L 22.1 34L 28 34"></path></g></g></g><g id="g-root-tx_errorobs_v5hhmr1fx50xy-stroke" data-item-order="0" data-item-id="tx_errorobs_v5hhmr1fx50xy" data-item-class="Label Stroke" data-item-index="none" data-renderer-id="0" transform="translate(514, 405)"></g><g id="g-root-tx_graphiqu_3dfur1fx51qd-stroke" data-item-order="0" data-item-id="tx_graphiqu_3dfur1fx51qd" data-item-class="Label Stroke" data-item-index="none" data-renderer-id="0" transform="translate(62, 441)"></g><g id="g-root-tx_notifica_3dfur1fx51qe-stroke" data-item-order="0" data-item-id="tx_notifica_3dfur1fx51qe" data-item-class="Label Stroke" data-item-index="none" data-renderer-id="0" transform="translate(134, 477)"></g><g id="g-root-cu_1qapwub1fxex37-stroke" data-item-order="0" data-item-id="cu_1qapwub1fxex37" data-item-class="Curve Stroke ColorFillGray ColorStrokeGray" data-item-index="none" data-renderer-id="0" transform="translate(442, 30)"><g id="cu_1qapwub1fxex37-stroke" fill="none" stroke-linecap="round" stroke-linejoin="round" stroke-miterlimit="4" stroke="#888888" stroke-width="2" stroke-dasharray="5.0, 7.0"><g><path d="M 10 109L 10 96.6L 10 30.9C 10 19.357248 19.357248 10 30.899998 10L 31 10L 34 10"></path></g></g></g><g id="g-root-tx_tauxdent_zkoio31fx53bh-stroke" data-item-order="0" data-item-id="tx_tauxdent_zkoio31fx53bh" data-item-class="Label Stroke" data-item-index="none" data-renderer-id="0" transform="translate(102, 255)"></g></g></g></svg>