<?xml version="1.0" encoding="utf-8" standalone="yes"?>
<!DOCTYPE svg PUBLIC "-//W3C//DTD SVG 1.1//EN" "http://www.w3.org/Graphics/SVG/1.1/DTD/svg11.dtd">
<svg width="673" height="494" viewBox="0 0 673 494" style="fill:none;stroke:none;fill-rule:evenodd;clip-rule:evenodd;stroke-linecap:round;stroke-linejoin:round;stroke-miterlimit:1.5;" version="1.1" xmlns="http://www.w3.org/2000/svg" xmlns:xlink="http://www.w3.org/1999/xlink"><style id="fontImports">@import url("https://fonts.googleapis.com/css2?family=Roboto:wght@400;700&amp;display=block");</style><rect id="" x="0" y="0" width="673" height="493.001" style="fill: #ffffff;"></rect><g id="items" style="isolation: isolate"><g id="blend" style="mix-blend-mode:normal"><g id="g-root-4.cu_sy_v6q6fdpat2x4-fill" data-item-order="999833540" data-item-id="4.cu_sy_v6q6fdpat2x4" data-item-class="Part Indexed Fill Stroke ColorStrokeBlack" data-item-index="4" data-renderer-id="0" transform="translate(242, 62)"><g id="4.cu_sy_v6q6fdpat2x4-fill" stroke="none" fill="url(#gradient-67a1ff-352354018)"><g><path d="M 214 418C 326.666 418 418 326.666 418 214C 418 101.3339 326.666 10 214 10C 101.3339 10 10 101.3339 10 214C 10 326.533 101.5177 417.784 214 418C 124.714 417.784 52 345.337 52 256C 52 166.53 124.53 94 214 94C 303.47 94 376 166.53 376 256C 376 345.47 303.47 418 214 418Z"></path></g></g></g><g id="g-root-4.cu_sy_v6q6fdpat2x4-fill" data-item-order="999833540" data-item-id="4.cu_sy_v6q6fdpat2x4" data-item-class="Part Indexed Fill Stroke ColorStrokeBlack" data-item-index="4" data-renderer-id="0" transform="translate(242, 62)"><g id="4.cu_sy_v6q6fdpat2x4-fill" stroke="none" fill="url(#gradient-67a1ff-352354018)"><g><path d="M 214 418C 326.666 418 418 326.666 418 214C 418 101.3339 326.666 10 214 10C 101.3339 10 10 101.3339 10 214C 10 326.533 101.5177 417.784 214 418C 124.714 417.784 52 345.337 52 256C 52 166.53 124.53 94 214 94C 303.47 94 376 166.53 376 256C 376 345.47 303.47 418 214 418Z"></path></g></g></g><g id="g-root-3.cu_sy_zlx7gppat5an-fill" data-item-order="999833542" data-item-id="3.cu_sy_zlx7gppat5an" data-item-class="Part Indexed Fill Stroke ColorStrokeBlack" data-item-index="3" data-renderer-id="0" transform="translate(284, 146)"><g id="3.cu_sy_zlx7gppat5an-fill" stroke="none" fill="url(#gradient-44d0ff-453494305)"><g><path d="M 172 334C 261.47 334 334 261.47 334 172C 334 82.5299 261.47 10 172 10C 82.5299 10 10 82.5299 10 172C 10 261.337 82.7137 333.784 172 334C 105.9097 333.784 52 280.141 52 214C 52 147.726 105.7258 94 172 94C 238.274 94 292 147.726 292 214C 292 280.274 238.274 334 172 334Z"></path></g></g></g><g id="g-root-3.cu_sy_zlx7gppat5an-fill" data-item-order="999833542" data-item-id="3.cu_sy_zlx7gppat5an" data-item-class="Part Indexed Fill Stroke ColorStrokeBlack" data-item-index="3" data-renderer-id="0" transform="translate(284, 146)"><g id="3.cu_sy_zlx7gppat5an-fill" stroke="none" fill="url(#gradient-44d0ff-453494305)"><g><path d="M 172 334C 261.47 334 334 261.47 334 172C 334 82.5299 261.47 10 172 10C 82.5299 10 10 82.5299 10 172C 10 261.337 82.7137 333.784 172 334C 105.9097 333.784 52 280.141 52 214C 52 147.726 105.7258 94 172 94C 238.274 94 292 147.726 292 214C 292 280.274 238.274 334 172 334Z"></path></g></g></g><g id="g-root-2.cu_sy_zlx7gppat5am-fill" data-item-order="999833544" data-item-id="2.cu_sy_zlx7gppat5am" data-item-class="Part Indexed Fill Stroke ColorStrokeBlack" data-item-index="2" data-renderer-id="0" transform="translate(326, 230)"><g id="2.cu_sy_zlx7gppat5am-fill" stroke="none" fill="url(#gradient-65e5a8-188701211)"><g><path d="M 130 250C 196.274 250 250 196.274 250 130C 250 63.7258 196.274 10 130 10C 63.7258 10 10 63.7258 10 130C 10 196.141 63.9097 249.784 130 250C 87.1057 249.785 52 214.945 52 172C 52 128.922 86.9218 94 130 94C 173.078 94 208 128.922 208 172C 208 215.078 173.078 250 130 250Z"></path></g></g></g><g id="g-root-2.cu_sy_zlx7gppat5am-fill" data-item-order="999833544" data-item-id="2.cu_sy_zlx7gppat5am" data-item-class="Part Indexed Fill Stroke ColorStrokeBlack" data-item-index="2" data-renderer-id="0" transform="translate(326, 230)"><g id="2.cu_sy_zlx7gppat5am-fill" stroke="none" fill="url(#gradient-65e5a8-188701211)"><g><path d="M 130 250C 196.274 250 250 196.274 250 130C 250 63.7258 196.274 10 130 10C 63.7258 10 10 63.7258 10 130C 10 196.141 63.9097 249.784 130 250C 87.1057 249.785 52 214.945 52 172C 52 128.922 86.9218 94 130 94C 173.078 94 208 128.922 208 172C 208 215.078 173.078 250 130 250Z"></path></g></g></g><g id="g-root-1.cu_sy_18hk7plpat4hx-fill" data-item-order="999833546" data-item-id="1.cu_sy_18hk7plpat4hx" data-item-class="Part Indexed Indexed_1 Fill Stroke ColorStrokeBlack" data-item-index="1" data-renderer-id="0" transform="translate(368, 314)"><g id="1.cu_sy_18hk7plpat4hx-fill" stroke="none" fill="url(#gradient-b8e45c-154771520)"><g><path d="M 166 88C 166 131.078 131.078 166 88 166C 45.1057 165.785 10 130.945 10 88C 10 44.9218 44.9218 10 88 10C 131.078 10 166 44.9218 166 88Z"></path></g></g></g><g id="g-root-1.cu_sy_18hk7plpat4hx-fill" data-item-order="999833546" data-item-id="1.cu_sy_18hk7plpat4hx" data-item-class="Part Indexed Indexed_1 Fill Stroke ColorStrokeBlack" data-item-index="1" data-renderer-id="0" transform="translate(368, 314)"><defs><linearGradient id="gradient-67a1ff-352354018" x2="0" y2="1"><stop offset="0" stop-color="#7fb0ff"></stop><stop offset="1" stop-color="#4F92FF"></stop></linearGradient><linearGradient id="gradient-44d0ff-453494305" x2="0" y2="1"><stop offset="0" stop-color="#6ddafe"></stop><stop offset="1" stop-color="#1AC6FF"></stop></linearGradient><linearGradient id="gradient-65e5a8-188701211" x2="0" y2="1"><stop offset="0" stop-color="#85eaba"></stop><stop offset="1" stop-color="#44E095"></stop></linearGradient><linearGradient id="gradient-b8e45c-154771520" x2="0" y2="1"><stop offset="0" stop-color="#c8ea80"></stop><stop offset="1" stop-color="#A8DD38"></stop></linearGradient></defs><g id="1.cu_sy_18hk7plpat4hx-fill" stroke="none" fill="url(#gradient-b8e45c-154771520)"><g><path d="M 166 88C 166 131.078 131.078 166 88 166C 45.1057 165.785 10 130.945 10 88C 10 44.9218 44.9218 10 88 10C 131.078 10 166 44.9218 166 88Z"></path></g></g></g><g id="g-root-tx_maintien_4m4ndpat3pg-fill" data-item-order="1000000000" data-item-id="tx_maintien_4m4ndpat3pg" data-item-class="Label Stroke Indexed ColorStrokeBlack" data-item-index="3" data-renderer-id="0" transform="translate(2, 158)"><g id="tx_maintien_4m4ndpat3pg-fill" stroke="none" fill="#484848"><g><text style="font: 20px Roboto, sans-serif; white-space: pre;" font-weight="20px" font-size="Roboto," font-family="sans-serif"><tspan x="21.71" y="32.5" dominant-baseline="ideographic">Maintient l'état actuel </tspan><tspan x="74.47" y="56.5" dominant-baseline="ideographic">avec une valeur </tspan><tspan x="153.55" y="80.5" dominant-baseline="ideographic">initiale</tspan></text></g></g></g><g id="g-root-tx_maintien_4m4ndpat3pg-fill" data-item-order="1000000000" data-item-id="tx_maintien_4m4ndpat3pg" data-item-class="Label Stroke Indexed ColorStrokeBlack" data-item-index="3" data-renderer-id="0" transform="translate(2, 158)"><g id="tx_maintien_4m4ndpat3pg-fill" stroke="none" fill="#484848"><g><text style="font: 20px Roboto, sans-serif; white-space: pre;" font-weight="20px" font-size="Roboto," font-family="sans-serif"><tspan x="21.71" y="32.5" dominant-baseline="ideographic">Maintient l'état actuel </tspan><tspan x="74.47" y="56.5" dominant-baseline="ideographic">avec une valeur </tspan><tspan x="153.55" y="80.5" dominant-baseline="ideographic">initiale</tspan></text></g></g></g><g id="g-root-tx_replaysu_1hf2n7tpat2pt-fill" data-item-order="1000000000" data-item-id="tx_replaysu_1hf2n7tpat2pt" data-item-class="Label Stroke Indexed InsideFill InsideColorFill ColorStrokeBlack" data-item-index="4" data-renderer-id="0" transform="translate(380, 98)"><g id="tx_replaysu_1hf2n7tpat2pt-fill" stroke="none" fill="#484848"><g><text style="font: 20px Roboto, sans-serif; white-space: pre;" font-weight="20px" font-size="Roboto," font-family="sans-serif"><tspan x="13.19" y="32.5" dominant-baseline="ideographic">ReplaySubject</tspan></text></g></g></g><g id="g-root-tx_replaysu_1hf2n7tpat2pt-fill" data-item-order="1000000000" data-item-id="tx_replaysu_1hf2n7tpat2pt" data-item-class="Label Stroke Indexed InsideFill InsideColorFill ColorStrokeBlack" data-item-index="4" data-renderer-id="0" transform="translate(380, 98)"><g id="tx_replaysu_1hf2n7tpat2pt-fill" stroke="none" fill="#484848"><g><text style="font: 20px Roboto, sans-serif; white-space: pre;" font-weight="20px" font-size="Roboto," font-family="sans-serif"><tspan x="13.19" y="32.5" dominant-baseline="ideographic">ReplaySubject</tspan></text></g></g></g><g id="g-root-tx_behavior_1hf2n7tpat2ps-fill" data-item-order="1000000000" data-item-id="tx_behavior_1hf2n7tpat2ps" data-item-class="Label Stroke Indexed InsideFill InsideColorFill ColorStrokeBlack" data-item-index="3" data-renderer-id="0" transform="translate(368, 182)"><g id="tx_behavior_1hf2n7tpat2ps-fill" stroke="none" fill="#484848"><g><text style="font: 20px Roboto, sans-serif; white-space: pre;" font-weight="20px" font-size="Roboto," font-family="sans-serif"><tspan x="16.02" y="32.5" dominant-baseline="ideographic">BehaviorSubject</tspan></text></g></g></g><g id="g-root-tx_behavior_1hf2n7tpat2ps-fill" data-item-order="1000000000" data-item-id="tx_behavior_1hf2n7tpat2ps" data-item-class="Label Stroke Indexed InsideFill InsideColorFill ColorStrokeBlack" data-item-index="3" data-renderer-id="0" transform="translate(368, 182)"><g id="tx_behavior_1hf2n7tpat2ps-fill" stroke="none" fill="#484848"><g><text style="font: 20px Roboto, sans-serif; white-space: pre;" font-weight="20px" font-size="Roboto," font-family="sans-serif"><tspan x="16.02" y="32.5" dominant-baseline="ideographic">BehaviorSubject</tspan></text></g></g></g><g id="g-root-tx_rleduale_4kfmrtpat2x7-fill" data-item-order="1000000000" data-item-id="tx_rleduale_4kfmrtpat2x7" data-item-class="Label Stroke Indexed ColorStrokeBlack" data-item-index="2" data-renderer-id="0" transform="translate(50, 242)"><g id="tx_rleduale_4kfmrtpat2x7-fill" stroke="none" fill="#484848"><g><text style="font: 20px Roboto, sans-serif; white-space: pre;" font-weight="20px" font-size="Roboto," font-family="sans-serif"><tspan x="15.38" y="32.5" dominant-baseline="ideographic">Rôle dual en tant </tspan><tspan x="16.18" y="56.5" dominant-baseline="ideographic">qu'Observable et </tspan><tspan x="84.27" y="80.5" dominant-baseline="ideographic">Observer</tspan></text></g></g></g><g id="g-root-tx_rleduale_4kfmrtpat2x7-fill" data-item-order="1000000000" data-item-id="tx_rleduale_4kfmrtpat2x7" data-item-class="Label Stroke Indexed ColorStrokeBlack" data-item-index="2" data-renderer-id="0" transform="translate(50, 242)"><g id="tx_rleduale_4kfmrtpat2x7-fill" stroke="none" fill="#484848"><g><text style="font: 20px Roboto, sans-serif; white-space: pre;" font-weight="20px" font-size="Roboto," font-family="sans-serif"><tspan x="15.38" y="32.5" dominant-baseline="ideographic">Rôle dual en tant </tspan><tspan x="16.18" y="56.5" dominant-baseline="ideographic">qu'Observable et </tspan><tspan x="84.27" y="80.5" dominant-baseline="ideographic">Observer</tspan></text></g></g></g><g id="g-root-tx_rejouele_1qa36dlpat4b1-fill" data-item-order="1000000000" data-item-id="tx_rejouele_1qa36dlpat4b1" data-item-class="Label Stroke Indexed ColorStrokeBlack" data-item-index="4" data-renderer-id="0" transform="translate(2, 74)"><g id="tx_rejouele_1qa36dlpat4b1-fill" stroke="none" fill="#484848"><g><text style="font: 20px Roboto, sans-serif; white-space: pre;" font-weight="20px" font-size="Roboto," font-family="sans-serif"><tspan x="33.05" y="32.5" dominant-baseline="ideographic">Rejoue les dernières </tspan><tspan x="20.94" y="56.5" dominant-baseline="ideographic">valeurs aux nouveaux </tspan><tspan x="135.52" y="80.5" dominant-baseline="ideographic">abonnés</tspan></text></g></g></g><g id="g-root-tx_sujet_1lu9o95pat53b-fill" data-item-order="1000000000" data-item-id="tx_sujet_1lu9o95pat53b" data-item-class="Label Stroke Indexed InsideFill InsideColorFill ColorStrokeBlack" data-item-index="2" data-renderer-id="0" transform="translate(416, 266)"><g id="tx_sujet_1lu9o95pat53b-fill" stroke="none" fill="#484848"><g><text style="font: 20px Roboto, sans-serif; white-space: pre;" font-weight="20px" font-size="Roboto," font-family="sans-serif"><tspan x="17.61" y="32.5" dominant-baseline="ideographic">Sujet</tspan></text></g></g></g><g id="g-root-tx_sujet_1lu9o95pat53b-fill" data-item-order="1000000000" data-item-id="tx_sujet_1lu9o95pat53b" data-item-class="Label Stroke Indexed InsideFill InsideColorFill ColorStrokeBlack" data-item-index="2" data-renderer-id="0" transform="translate(416, 266)"><g id="tx_sujet_1lu9o95pat53b-fill" stroke="none" fill="#484848"><g><text style="font: 20px Roboto, sans-serif; white-space: pre;" font-weight="20px" font-size="Roboto," font-family="sans-serif"><tspan x="17.61" y="32.5" dominant-baseline="ideographic">Sujet</tspan></text></g></g></g><g id="g-root-tx_rejouele_1qa36dlpat4b1-fill" data-item-order="1000000000" data-item-id="tx_rejouele_1qa36dlpat4b1" data-item-class="Label Stroke Indexed ColorStrokeBlack" data-item-index="4" data-renderer-id="0" transform="translate(2, 74)"><g id="tx_rejouele_1qa36dlpat4b1-fill" stroke="none" fill="#484848"><g><text style="font: 20px Roboto, sans-serif; white-space: pre;" font-weight="20px" font-size="Roboto," font-family="sans-serif"><tspan x="33.05" y="32.5" dominant-baseline="ideographic">Rejoue les dernières </tspan><tspan x="20.94" y="56.5" dominant-baseline="ideographic">valeurs aux nouveaux </tspan><tspan x="135.52" y="80.5" dominant-baseline="ideographic">abonnés</tspan></text></g></g></g><g id="g-root-tx_observab_v6q6fdpat2x5-fill" data-item-order="1000000000" data-item-id="tx_observab_v6q6fdpat2x5" data-item-class="Label Stroke Title ColorStrokeBlack" data-item-index="none" data-renderer-id="0" transform="translate(188, 2)"><g id="tx_observab_v6q6fdpat2x5-fill" stroke="none" fill="#484848"><g><text style="font: 20px Roboto, sans-serif; white-space: pre;" font-weight="20px" font-size="Roboto," font-family="sans-serif"><tspan x="15.98" y="32.5" dominant-baseline="ideographic">Observables et Subjects RxJS</tspan></text></g></g></g><g id="g-root-tx_blocdeco_hv9o21pat4i2-fill" data-item-order="1000000000" data-item-id="tx_blocdeco_hv9o21pat4i2" data-item-class="Label Stroke Indexed Indexed_1 ColorStrokeBlack" data-item-index="1" data-renderer-id="0" transform="translate(2, 356)"><g id="tx_blocdeco_hv9o21pat4i2-fill" stroke="none" fill="#484848"><g><text style="font: 20px Roboto, sans-serif; white-space: pre;" font-weight="20px" font-size="Roboto," font-family="sans-serif"><tspan x="29.26" y="32.5" dominant-baseline="ideographic">Bloc de construction </tspan><tspan x="23" y="56.5" dominant-baseline="ideographic">fondamental pour les </tspan><tspan x="17.75" y="80.5" dominant-baseline="ideographic">données asynchrones</tspan></text></g></g></g><g id="g-root-tx_blocdeco_hv9o21pat4i2-fill" data-item-order="1000000000" data-item-id="tx_blocdeco_hv9o21pat4i2" data-item-class="Label Stroke Indexed Indexed_1 ColorStrokeBlack" data-item-index="1" data-renderer-id="0" transform="translate(2, 356)"><g id="tx_blocdeco_hv9o21pat4i2-fill" stroke="none" fill="#484848"><g><text style="font: 20px Roboto, sans-serif; white-space: pre;" font-weight="20px" font-size="Roboto," font-family="sans-serif"><tspan x="29.26" y="32.5" dominant-baseline="ideographic">Bloc de construction </tspan><tspan x="23" y="56.5" dominant-baseline="ideographic">fondamental pour les </tspan><tspan x="17.75" y="80.5" dominant-baseline="ideographic">données asynchrones</tspan></text></g></g></g><g id="g-root-tx_observab_1qa36dlpat4b2-fill" data-item-order="1000000000" data-item-id="tx_observab_1qa36dlpat4b2" data-item-class="Label Stroke Indexed Indexed_1 InsideFill InsideColorFill ColorStrokeBlack" data-item-index="1" data-renderer-id="0" transform="translate(392, 380)"><g id="tx_observab_1qa36dlpat4b2-fill" stroke="none" fill="#484848"><g><text style="font: 20px Roboto, sans-serif; white-space: pre;" font-weight="20px" font-size="Roboto," font-family="sans-serif"><tspan x="14.05" y="32.5" dominant-baseline="ideographic">Observable</tspan></text></g></g></g><g id="g-root-tx_observab_v6q6fdpat2x5-fill" data-item-order="1000000000" data-item-id="tx_observab_v6q6fdpat2x5" data-item-class="Label Stroke Title ColorStrokeBlack" data-item-index="none" data-renderer-id="0" transform="translate(188, 2)"><g id="tx_observab_v6q6fdpat2x5-fill" stroke="none" fill="#484848"><g><text style="font: 20px Roboto, sans-serif; white-space: pre;" font-weight="20px" font-size="Roboto," font-family="sans-serif"><tspan x="15.98" y="32.5" dominant-baseline="ideographic">Observables et Subjects RxJS</tspan></text></g></g></g><g id="g-root-tx_observab_1qa36dlpat4b2-fill" data-item-order="1000000000" data-item-id="tx_observab_1qa36dlpat4b2" data-item-class="Label Stroke Indexed Indexed_1 InsideFill InsideColorFill ColorStrokeBlack" data-item-index="1" data-renderer-id="0" transform="translate(392, 380)"><g id="tx_observab_1qa36dlpat4b2-fill" stroke="none" fill="#484848"><g><text style="font: 20px Roboto, sans-serif; white-space: pre;" font-weight="20px" font-size="Roboto," font-family="sans-serif"><tspan x="14.05" y="32.5" dominant-baseline="ideographic">Observable</tspan></text></g></g></g><g id="g-root-4.cu_sy_v6q6fdpat2x4-stroke" data-item-order="999833540" data-item-id="4.cu_sy_v6q6fdpat2x4" data-item-class="Part Indexed Fill Stroke ColorStrokeBlack" data-item-index="4" data-renderer-id="0" transform="translate(242, 62)"><g id="4.cu_sy_v6q6fdpat2x4-stroke" fill="none" stroke-linecap="round" stroke-linejoin="round" stroke-miterlimit="4" stroke="#484848" stroke-width="2"><g><path d="M 214 418C 326.6661 418 418 326.6661 418 214C 418 101.3339 326.6661 10 214 10C 101.3339 10 10 101.3339 10 214C 10 326.5328 101.5177 417.7842 214 418C 124.7137 417.7843 52 345.3368 52 256C 52 166.5299 124.5299 94 214 94C 303.4701 94 376 166.5299 376 256C 376 345.4701 303.4701 418 214 418ZM 214 418C 213.8666 418 214.1332 418.0007 214 418Z"></path></g></g></g><g id="g-root-4.cu_sy_v6q6fdpat2x4-stroke" data-item-order="999833540" data-item-id="4.cu_sy_v6q6fdpat2x4" data-item-class="Part Indexed Fill Stroke ColorStrokeBlack" data-item-index="4" data-renderer-id="0" transform="translate(242, 62)"><g id="4.cu_sy_v6q6fdpat2x4-stroke" fill="none" stroke-linecap="round" stroke-linejoin="round" stroke-miterlimit="4" stroke="#484848" stroke-width="2"><g><path d="M 214 418C 326.6661 418 418 326.6661 418 214C 418 101.3339 326.6661 10 214 10C 101.3339 10 10 101.3339 10 214C 10 326.5328 101.5177 417.7842 214 418C 124.7137 417.7843 52 345.3368 52 256C 52 166.5299 124.5299 94 214 94C 303.4701 94 376 166.5299 376 256C 376 345.4701 303.4701 418 214 418ZM 214 418C 213.8666 418 214.1332 418.0007 214 418Z"></path></g></g></g><g id="g-root-3.cu_sy_zlx7gppat5an-stroke" data-item-order="999833542" data-item-id="3.cu_sy_zlx7gppat5an" data-item-class="Part Indexed Fill Stroke ColorStrokeBlack" data-item-index="3" data-renderer-id="0" transform="translate(284, 146)"><g id="3.cu_sy_zlx7gppat5an-stroke" fill="none" stroke-linecap="round" stroke-linejoin="round" stroke-miterlimit="4" stroke="#484848" stroke-width="2"><g><path d="M 172 334C 261.4701 334 334 261.4701 334 172C 334 82.5299 261.4701 10 172 10C 82.5299 10 10 82.5299 10 172C 10 261.3368 82.7137 333.7843 172 334C 105.9097 333.7844 52 280.1408 52 214C 52 147.7258 105.7258 94 172 94C 238.2742 94 292 147.7258 292 214C 292 280.2742 238.2742 334 172 334ZM 172 334C 171.8666 334 172.1332 334.0007 172 334Z"></path></g></g></g><g id="g-root-3.cu_sy_zlx7gppat5an-stroke" data-item-order="999833542" data-item-id="3.cu_sy_zlx7gppat5an" data-item-class="Part Indexed Fill Stroke ColorStrokeBlack" data-item-index="3" data-renderer-id="0" transform="translate(284, 146)"><g id="3.cu_sy_zlx7gppat5an-stroke" fill="none" stroke-linecap="round" stroke-linejoin="round" stroke-miterlimit="4" stroke="#484848" stroke-width="2"><g><path d="M 172 334C 261.4701 334 334 261.4701 334 172C 334 82.5299 261.4701 10 172 10C 82.5299 10 10 82.5299 10 172C 10 261.3368 82.7137 333.7843 172 334C 105.9097 333.7844 52 280.1408 52 214C 52 147.7258 105.7258 94 172 94C 238.2742 94 292 147.7258 292 214C 292 280.2742 238.2742 334 172 334ZM 172 334C 171.8666 334 172.1332 334.0007 172 334Z"></path></g></g></g><g id="g-root-2.cu_sy_zlx7gppat5am-stroke" data-item-order="999833544" data-item-id="2.cu_sy_zlx7gppat5am" data-item-class="Part Indexed Fill Stroke ColorStrokeBlack" data-item-index="2" data-renderer-id="0" transform="translate(326, 230)"><g id="2.cu_sy_zlx7gppat5am-stroke" fill="none" stroke-linecap="round" stroke-linejoin="round" stroke-miterlimit="4" stroke="#484848" stroke-width="2"><g><path d="M 130 250C 196.2742 250 250 196.2742 250 130C 250 63.7258 196.2742 10 130 10C 63.7258 10 10 63.7258 10 130C 10 196.1408 63.9097 249.7844 130 250C 87.1057 249.7847 52 214.9449 52 172C 52 128.9218 86.9218 94 130 94C 173.0782 94 208 128.9218 208 172C 208 215.0782 173.0782 250 130 250ZM 130 250C 129.8666 250 130.1332 250.0007 130 250Z"></path></g></g></g><g id="g-root-2.cu_sy_zlx7gppat5am-stroke" data-item-order="999833544" data-item-id="2.cu_sy_zlx7gppat5am" data-item-class="Part Indexed Fill Stroke ColorStrokeBlack" data-item-index="2" data-renderer-id="0" transform="translate(326, 230)"><g id="2.cu_sy_zlx7gppat5am-stroke" fill="none" stroke-linecap="round" stroke-linejoin="round" stroke-miterlimit="4" stroke="#484848" stroke-width="2"><g><path d="M 130 250C 196.2742 250 250 196.2742 250 130C 250 63.7258 196.2742 10 130 10C 63.7258 10 10 63.7258 10 130C 10 196.1408 63.9097 249.7844 130 250C 87.1057 249.7847 52 214.9449 52 172C 52 128.9218 86.9218 94 130 94C 173.0782 94 208 128.9218 208 172C 208 215.0782 173.0782 250 130 250ZM 130 250C 129.8666 250 130.1332 250.0007 130 250Z"></path></g></g></g><g id="g-root-1.cu_sy_18hk7plpat4hx-stroke" data-item-order="999833546" data-item-id="1.cu_sy_18hk7plpat4hx" data-item-class="Part Indexed Indexed_1 Fill Stroke ColorStrokeBlack" data-item-index="1" data-renderer-id="0" transform="translate(368, 314)"><g id="1.cu_sy_18hk7plpat4hx-stroke" fill="none" stroke-linecap="round" stroke-linejoin="round" stroke-miterlimit="4" stroke="#484848" stroke-width="2"><g><path d="M 166 88C 166 131.0782 131.0782 166 88 166C 45.1057 165.7847 10 130.9449 10 88C 10 44.9218 44.9218 10 88 10C 131.0782 10 166 44.9218 166 88ZM 88 166C 87.8666 166 88.1332 166.0007 88 166Z"></path></g></g></g><g id="g-root-1.cu_sy_18hk7plpat4hx-stroke" data-item-order="999833546" data-item-id="1.cu_sy_18hk7plpat4hx" data-item-class="Part Indexed Indexed_1 Fill Stroke ColorStrokeBlack" data-item-index="1" data-renderer-id="0" transform="translate(368, 314)"><g id="1.cu_sy_18hk7plpat4hx-stroke" fill="none" stroke-linecap="round" stroke-linejoin="round" stroke-miterlimit="4" stroke="#484848" stroke-width="2"><g><path d="M 166 88C 166 131.0782 131.0782 166 88 166C 45.1057 165.7847 10 130.9449 10 88C 10 44.9218 44.9218 10 88 10C 131.0782 10 166 44.9218 166 88ZM 88 166C 87.8666 166 88.1332 166.0007 88 166Z"></path></g></g></g><g id="g-root-tx_maintien_4m4ndpat3pg-stroke" data-item-order="1000000000" data-item-id="tx_maintien_4m4ndpat3pg" data-item-class="Label Stroke Indexed ColorStrokeBlack" data-item-index="3" data-renderer-id="0" transform="translate(2, 158)"></g><g id="g-root-tx_maintien_4m4ndpat3pg-stroke" data-item-order="1000000000" data-item-id="tx_maintien_4m4ndpat3pg" data-item-class="Label Stroke Indexed ColorStrokeBlack" data-item-index="3" data-renderer-id="0" transform="translate(2, 158)"></g><g id="g-root-tx_replaysu_1hf2n7tpat2pt-stroke" data-item-order="1000000000" data-item-id="tx_replaysu_1hf2n7tpat2pt" data-item-class="Label Stroke Indexed InsideFill InsideColorFill ColorStrokeBlack" data-item-index="4" data-renderer-id="0" transform="translate(380, 98)"></g><g id="g-root-tx_replaysu_1hf2n7tpat2pt-stroke" data-item-order="1000000000" data-item-id="tx_replaysu_1hf2n7tpat2pt" data-item-class="Label Stroke Indexed InsideFill InsideColorFill ColorStrokeBlack" data-item-index="4" data-renderer-id="0" transform="translate(380, 98)"></g><g id="g-root-tx_behavior_1hf2n7tpat2ps-stroke" data-item-order="1000000000" data-item-id="tx_behavior_1hf2n7tpat2ps" data-item-class="Label Stroke Indexed InsideFill InsideColorFill ColorStrokeBlack" data-item-index="3" data-renderer-id="0" transform="translate(368, 182)"></g><g id="g-root-tx_behavior_1hf2n7tpat2ps-stroke" data-item-order="1000000000" data-item-id="tx_behavior_1hf2n7tpat2ps" data-item-class="Label Stroke Indexed InsideFill InsideColorFill ColorStrokeBlack" data-item-index="3" data-renderer-id="0" transform="translate(368, 182)"></g><g id="g-root-tx_rleduale_4kfmrtpat2x7-stroke" data-item-order="1000000000" data-item-id="tx_rleduale_4kfmrtpat2x7" data-item-class="Label Stroke Indexed ColorStrokeBlack" data-item-index="2" data-renderer-id="0" transform="translate(50, 242)"></g><g id="g-root-tx_rleduale_4kfmrtpat2x7-stroke" data-item-order="1000000000" data-item-id="tx_rleduale_4kfmrtpat2x7" data-item-class="Label Stroke Indexed ColorStrokeBlack" data-item-index="2" data-renderer-id="0" transform="translate(50, 242)"></g><g id="g-root-tx_rejouele_1qa36dlpat4b1-stroke" data-item-order="1000000000" data-item-id="tx_rejouele_1qa36dlpat4b1" data-item-class="Label Stroke Indexed ColorStrokeBlack" data-item-index="4" data-renderer-id="0" transform="translate(2, 74)"></g><g id="g-root-tx_sujet_1lu9o95pat53b-stroke" data-item-order="1000000000" data-item-id="tx_sujet_1lu9o95pat53b" data-item-class="Label Stroke Indexed InsideFill InsideColorFill ColorStrokeBlack" data-item-index="2" data-renderer-id="0" transform="translate(416, 266)"></g><g id="g-root-tx_sujet_1lu9o95pat53b-stroke" data-item-order="1000000000" data-item-id="tx_sujet_1lu9o95pat53b" data-item-class="Label Stroke Indexed InsideFill InsideColorFill ColorStrokeBlack" data-item-index="2" data-renderer-id="0" transform="translate(416, 266)"></g><g id="g-root-tx_rejouele_1qa36dlpat4b1-stroke" data-item-order="1000000000" data-item-id="tx_rejouele_1qa36dlpat4b1" data-item-class="Label Stroke Indexed ColorStrokeBlack" data-item-index="4" data-renderer-id="0" transform="translate(2, 74)"></g><g id="g-root-tx_observab_v6q6fdpat2x5-stroke" data-item-order="1000000000" data-item-id="tx_observab_v6q6fdpat2x5" data-item-class="Label Stroke Title ColorStrokeBlack" data-item-index="none" data-renderer-id="0" transform="translate(188, 2)"></g><g id="g-root-tx_blocdeco_hv9o21pat4i2-stroke" data-item-order="1000000000" data-item-id="tx_blocdeco_hv9o21pat4i2" data-item-class="Label Stroke Indexed Indexed_1 ColorStrokeBlack" data-item-index="1" data-renderer-id="0" transform="translate(2, 356)"></g><g id="g-root-tx_blocdeco_hv9o21pat4i2-stroke" data-item-order="1000000000" data-item-id="tx_blocdeco_hv9o21pat4i2" data-item-class="Label Stroke Indexed Indexed_1 ColorStrokeBlack" data-item-index="1" data-renderer-id="0" transform="translate(2, 356)"></g><g id="g-root-tx_observab_1qa36dlpat4b2-stroke" data-item-order="1000000000" data-item-id="tx_observab_1qa36dlpat4b2" data-item-class="Label Stroke Indexed Indexed_1 InsideFill InsideColorFill ColorStrokeBlack" data-item-index="1" data-renderer-id="0" transform="translate(392, 380)"></g><g id="g-root-tx_observab_v6q6fdpat2x5-stroke" data-item-order="1000000000" data-item-id="tx_observab_v6q6fdpat2x5" data-item-class="Label Stroke Title ColorStrokeBlack" data-item-index="none" data-renderer-id="0" transform="translate(188, 2)"></g><g id="g-root-tx_observab_1qa36dlpat4b2-stroke" data-item-order="1000000000" data-item-id="tx_observab_1qa36dlpat4b2" data-item-class="Label Stroke Indexed Indexed_1 InsideFill InsideColorFill ColorStrokeBlack" data-item-index="1" data-renderer-id="0" transform="translate(392, 380)"></g></g></g></svg>